# xmcd
#
# Track frame offsets: 
#        150
#        24543
#        45300
#        74069
#        97742
#        124959
#        150684
#        173466
#        193849
#        217518
#        245332
#        270775
#
# Disc length: 3961 seconds
#
# Revision: 0
# Processed by: cddbd v1.5.2PL0 Copyright (c) Steve Scherf et al.
# Submitted via: ExactAudioCopyFreeDBPlugin 1.0
#
DISCID=920f770c
DTITLE=Dola Mizik - New York Time
DYEAR=2012
DGENRE=World
TTITLE0=New York Time
TTITLE1=Show Me The Way
TTITLE2=Pa Kritike
TTITLE3=Player No More
TTITLE4=U My Baby
TTITLE5=Voye Kompa Piwo
TTITLE6=Leve Ko'w
TTITLE7=Just Wanna Love You
TTITLE8=Banm Kompa
TTITLE9=Anpil Bel Moun
TTITLE10=Wake Up
TTITLE11=Party Time
EXTD=
EXTT0=
EXTT1=
EXTT2=
EXTT3=
EXTT4=
EXTT5=
EXTT6=
EXTT7=
EXTT8=
EXTT9=
EXTT10=
EXTT11=
PLAYORDER=
